<svg width="126" height="55" viewBox="0 0 126 55" fill="none" xmlns="http://www.w3.org/2000/svg">
<path d="M0.0291374 0H0.0449554C6.65098 5.37252 13.2504 10.7533 19.8564 16.1258C26.4299 10.7492 33.0052 5.37418 39.5804 0H39.597C39.5979 10.3234 39.5962 20.6468 39.5979 30.9703C33.0226 36.3353 26.4349 41.6847 19.8622 47.0522C16.4972 44.3419 13.1496 41.6093 9.79041 38.8915C9.78874 44.2608 9.79207 49.63 9.78874 55C6.52611 52.3494 3.26014 49.7029 0 47.0489C0.00333007 37.4511 -9.14594e-07 27.8525 0.00166412 18.2546C6.60353 23.6305 13.1987 29.0146 19.7998 34.3921C23.1457 31.6934 26.489 28.9922 29.8349 26.2927C29.8374 24.3934 29.8358 22.494 29.8349 20.5947C26.5074 23.3132 23.1823 26.0359 19.8547 28.7545C13.2454 23.3472 6.64183 17.9333 0.0316348 12.5259C0.0249747 8.35035 0.0308024 4.17559 0.0291374 0Z" fill="#E4E4E7"/>
<path d="M29.8434 44.3282C33.0827 41.6237 36.3029 38.8944 39.5381 36.1841C39.5406 39.8279 39.5397 43.4725 39.5389 47.1163C36.3038 49.7231 33.0719 52.3331 29.8343 54.9374C29.8384 51.4004 29.8218 47.8635 29.8434 44.3282Z" fill="#E4E4E7"/>
<path d="M52.0898 26.7629C52.4104 23.0553 52.73 19.3485 53.0556 15.6417C53.9955 15.6475 54.9346 15.6335 55.8736 15.6492C56.7844 18.0961 57.8534 20.4908 58.566 23.0056C59.0022 21.3945 59.6666 19.8588 60.2627 18.3023C60.6007 17.4193 60.9587 16.5421 61.2858 15.655C62.2274 15.6277 63.1706 15.6467 64.1122 15.6451C64.4944 19.351 64.8848 23.0561 65.2678 26.762C64.4136 26.7629 63.5594 26.7629 62.7053 26.762C62.5213 24.7666 62.2932 22.7745 62.1766 20.7732C62.1317 20.2696 62.1283 19.761 62.0592 19.2607C61.1859 21.7457 60.216 24.195 59.3128 26.6693C58.8074 26.6701 58.3029 26.6701 57.7976 26.6701C56.906 24.2124 55.9019 21.7921 55.1685 19.2806C55.1061 20.4667 55.0802 21.6612 54.9787 22.8482C54.8696 24.1528 54.7614 25.4574 54.6532 26.762C53.7982 26.7637 52.944 26.762 52.0898 26.7629Z" fill="#E4E4E7"/>
<path d="M67.3413 15.6422C68.1954 15.6414 69.0496 15.6414 69.9046 15.6422C69.9063 19.349 69.9054 23.0549 69.9046 26.7617C69.0521 26.765 68.1988 26.7584 67.3463 26.765C67.3338 23.0574 67.3438 19.3498 67.3413 15.6422Z" fill="#E4E4E7"/>
<path d="M72.2472 15.6429C73.093 15.6429 73.938 15.6421 74.7839 15.6429C74.7839 18.61 74.7847 21.5762 74.783 24.5425C76.1617 24.5491 77.5403 24.5425 78.919 24.5458C78.9198 25.2847 78.9198 26.0235 78.919 26.7624C76.6937 26.7574 74.4675 26.7748 72.2422 26.7541C72.2538 23.0507 72.243 19.3464 72.2472 15.6429Z" fill="#E4E4E7"/>
<path d="M80.5197 15.6422C81.3656 15.6414 82.2106 15.6414 83.0564 15.6422C83.0564 19.349 83.0573 23.0549 83.0564 26.7617C82.2106 26.7625 81.3656 26.7625 80.5206 26.7617C80.5189 23.0557 80.5197 19.349 80.5197 15.6422Z" fill="#E4E4E7"/>
<path d="M84.8207 15.6422C87.4956 15.6414 90.1696 15.6414 92.8445 15.6422C92.8445 16.3198 92.8445 16.9974 92.8437 17.6749C91.9437 17.6758 91.0429 17.6749 90.143 17.6758C90.1413 20.7041 90.1438 23.7325 90.1421 26.7617C89.278 26.7625 88.4147 26.7625 87.5505 26.7617C87.5497 23.7333 87.5513 20.7041 87.5497 17.6758C86.6397 17.6741 85.7306 17.6758 84.8207 17.6749C84.8198 16.9974 84.8207 16.3198 84.8207 15.6422Z" fill="#E4E4E7"/>
<path d="M97.4754 15.6439C98.5502 15.6415 99.6258 15.6431 100.701 15.6431C101.943 19.3499 103.184 23.0558 104.424 26.7626C103.514 26.7634 102.605 26.7642 101.695 26.7626C101.466 26.0038 101.234 25.2467 101.008 24.4872C99.704 24.4772 98.3995 24.4888 97.0958 24.4814C96.8535 25.2384 96.6354 26.0038 96.3989 26.7634C95.5081 26.7626 94.6174 26.7634 93.7266 26.7626C94.9753 23.0558 96.2266 19.3507 97.4754 15.6439ZM97.6968 22.4495C98.5968 22.452 99.4976 22.4511 100.398 22.4495C99.9355 20.8086 99.4118 19.1817 99.0572 17.5127C98.6909 19.1801 98.2113 20.8218 97.6968 22.4495Z" fill="#E4E4E7"/>
<path d="M105.888 15.6432C107.24 15.6432 108.593 15.6383 109.945 15.6457C110.975 15.6598 112.051 15.9398 112.817 16.6579C113.424 17.1657 113.801 17.917 113.881 18.6998C113.973 19.5794 113.861 20.5212 113.37 21.2775C113.018 21.8283 112.468 22.2259 111.873 22.4835C112.817 23.9083 113.764 25.333 114.708 26.7594C113.691 26.7685 112.674 26.7569 111.658 26.7652C110.851 25.4862 110.054 24.2023 109.258 22.9176C108.99 22.906 108.721 22.9126 108.453 22.9126C108.451 24.1957 108.453 25.4788 108.452 26.7618C107.598 26.7652 106.746 26.7585 105.893 26.7652C105.881 23.0576 105.891 19.35 105.888 15.6432ZM108.453 17.7058C108.452 18.7536 108.453 19.8006 108.452 20.8476C108.894 20.8459 109.335 20.8526 109.777 20.8451C110.23 20.8352 110.721 20.6968 111.007 20.3233C111.316 19.9116 111.361 19.3591 111.29 18.8654C111.219 18.3692 110.853 17.9311 110.365 17.796C109.743 17.6279 109.088 17.7364 108.453 17.7058Z" fill="#E4E4E7"/>
<path d="M115.234 15.6422C116.222 15.6364 117.21 15.6497 118.197 15.6348C118.949 17.3337 119.683 19.0442 120.308 20.7936C120.531 20.0415 120.858 19.3266 121.165 18.6068C121.594 17.6095 122.052 16.6246 122.512 15.6414C123.504 15.6397 124.495 15.643 125.487 15.6397C124.202 17.988 122.885 20.319 121.608 22.6706C121.593 24.0332 121.607 25.3974 121.601 26.7608C120.756 26.7617 119.911 26.7617 119.066 26.7608C119.066 25.5084 119.064 24.2552 119.067 23.0027C119.061 22.8636 119.093 22.7128 119.009 22.5911C117.75 20.2751 116.491 17.9591 115.234 15.6422Z" fill="#E4E4E7"/>
<path d="M59.6719 42.7178C59.9366 38.9903 60.2055 35.2637 60.4728 31.537C61.0389 31.5321 61.6058 31.542 62.1728 31.5312C63.3391 34.5977 64.3989 37.7039 65.4637 40.8077C66.5435 37.6923 67.744 34.6201 68.9103 31.5362C69.4798 31.5354 70.05 31.5354 70.6195 31.537C70.9408 35.2637 71.2655 38.9903 71.586 42.7178H70.2623C69.9876 39.5975 69.7195 36.4764 69.4614 33.3544C68.3775 36.3968 67.2461 39.4211 66.0981 42.4395C65.6752 42.442 65.2531 42.4403 64.8302 42.4411C63.7504 39.4625 62.7081 36.4697 61.6374 33.4886C61.4926 36.5683 61.2129 39.6406 61.0197 42.7178H59.6719Z" fill="#E4E4E7"/>
<path d="M77.2392 31.537C77.8511 31.5329 78.4639 31.5437 79.0766 31.5312C80.3745 35.2554 81.6449 38.9895 82.9278 42.7186H81.4926C81.1612 41.7313 80.8307 40.7431 80.4869 39.7598C78.9168 39.7656 77.3466 39.759 75.7765 39.7631C75.4443 40.748 75.1072 41.7321 74.7766 42.7186H73.3164C74.6185 38.9895 75.9322 35.2645 77.2392 31.537ZM76.1644 38.6217C77.4873 38.6217 78.811 38.6217 80.1339 38.6217C79.4612 36.6263 78.8127 34.6226 78.1533 32.623C77.5606 34.6449 76.8005 36.613 76.1644 38.6217Z" fill="#E4E4E7"/>
<path d="M84.7914 31.5386C85.7679 31.5378 86.7436 31.5353 87.7194 31.5394C88.5835 31.5502 89.4801 31.7084 90.2094 32.1955C90.8679 32.6254 91.3125 33.3394 91.4607 34.1039C91.6696 35.1277 91.4981 36.2775 90.8122 37.0967C90.4292 37.5771 89.8739 37.8894 89.292 38.0683C90.2677 39.6255 91.2734 41.1629 92.2499 42.7193H90.619C89.7574 41.2921 88.8624 39.8848 87.9932 38.4626C87.9375 38.3922 87.9017 38.263 87.7876 38.2845C87.2398 38.2804 86.6912 38.2861 86.1434 38.2837C86.1409 39.7622 86.1434 41.2408 86.1426 42.7193H84.7914C84.7914 38.9919 84.7906 35.2652 84.7914 31.5386ZM86.1426 32.7082C86.1426 34.1868 86.1417 35.6653 86.1426 37.1439C86.7761 37.1406 87.4105 37.1522 88.044 37.1381C88.6185 37.1182 89.2212 36.9385 89.615 36.5003C90.2377 35.8467 90.3218 34.8395 90.0562 34.012C89.8647 33.404 89.312 32.9691 88.7009 32.8258C87.8634 32.6229 86.9942 32.7389 86.1426 32.7082Z" fill="#E4E4E7"/>
<path d="M93.8945 31.5391C94.3441 31.5375 94.7945 31.5383 95.2449 31.5383C95.2465 35.2658 95.2449 38.9924 95.2457 42.7199H93.8945C93.8945 38.9932 93.8945 35.2658 93.8945 31.5391Z" fill="#E4E4E7"/>
<path d="M95.5215 37.176C96.9359 35.2957 98.3512 33.4163 99.7682 31.5385C100.328 31.5385 100.888 31.5376 101.447 31.5385C100.025 33.4188 98.5968 35.2949 97.1765 37.1769C98.6776 39.0265 100.193 40.8637 101.685 42.72H99.943C98.4861 40.8588 96.9917 39.0265 95.5215 37.176Z" fill="#E4E4E7"/>
<path d="M103.406 31.539C105.465 31.5374 107.524 31.5382 109.583 31.539C109.583 31.9383 109.584 32.3392 109.582 32.7393C107.974 32.7409 106.366 32.7385 104.758 32.7409C104.753 34.0099 104.766 35.2798 104.752 36.5496C106.164 36.5653 107.578 36.5661 108.99 36.5488C109.019 36.9414 108.997 37.3357 109.004 37.7291C107.589 37.7308 106.174 37.7283 104.758 37.7299C104.757 38.9923 104.758 40.2547 104.758 41.5179C106.394 41.5212 108.03 41.5162 109.666 41.5195C109.665 41.9196 109.665 42.3197 109.666 42.7198H103.406C103.406 38.9931 103.407 35.2657 103.406 31.539Z" fill="#E4E4E7"/>
<path d="M110.766 31.539C113.229 31.5382 115.693 31.5374 118.155 31.539C118.155 31.9391 118.156 32.3392 118.155 32.7393C117.144 32.7393 116.134 32.7401 115.124 32.7393C115.12 36.0658 115.123 39.3932 115.122 42.7198H113.771C113.771 39.3932 113.772 36.0667 113.771 32.7401C112.773 32.7426 111.776 32.731 110.778 32.7467C110.752 32.3442 110.77 31.9408 110.766 31.539Z" fill="#E4E4E7"/>
</svg>
