<svg width="128" height="53" viewBox="0 0 128 53" fill="none" xmlns="http://www.w3.org/2000/svg">
<path d="M13.1504 43.9671V36.3076H14.9556L16.9564 39.5473L18.9571 36.3076H20.7623V43.9671H19.0973V38.9664L16.9564 42.2385H16.9127L14.7924 38.9988V43.9671H13.1504Z" fill="#E4E4E7"/>
<path d="M27.5266 43.2123C26.9218 43.8024 26.1698 44.0986 25.2706 44.0986C24.3714 44.0986 23.624 43.8047 23.0238 43.2169C22.4259 42.6291 22.127 41.9072 22.127 41.0464C22.127 40.1855 22.4282 39.4705 23.033 38.8804C23.6378 38.2903 24.3898 37.9941 25.289 37.9941C26.1882 37.9941 26.9356 38.288 27.5335 38.8758C28.1314 39.4636 28.4304 40.1855 28.4304 41.0464C28.4304 41.9072 28.1268 42.6199 27.522 43.2123H27.5266ZM25.2936 42.6662C25.7512 42.6662 26.1146 42.5111 26.3906 42.2011C26.6665 41.891 26.8045 41.5068 26.8045 41.0464C26.8045 40.5859 26.6619 40.2202 26.3768 39.9032C26.0893 39.5862 25.7213 39.4265 25.2729 39.4265C24.8245 39.4265 24.4496 39.5816 24.1737 39.8916C23.8977 40.2017 23.7597 40.5859 23.7597 41.0464C23.7597 41.5068 23.9046 41.8725 24.1898 42.1895C24.4749 42.5065 24.8429 42.6662 25.2936 42.6662Z" fill="#E4E4E7"/>
<path d="M34.155 43.9668H30.5031L30.3835 45.346H28.9922V42.5437H29.6246C30.0017 41.7361 30.1903 40.4217 30.1903 38.6052V38.103H34.9529V42.5437H35.7463L35.5509 45.346H34.1596V43.9668H34.155ZM31.3057 42.546H33.2972V39.5285H31.7426V39.6604C31.7288 40.9215 31.5839 41.8842 31.308 42.5483L31.3057 42.546Z" fill="#E4E4E7"/>
<path d="M38.0364 45.7509C37.5143 45.7509 37.0268 45.6144 36.5692 45.346L37.1234 44.1427C37.3764 44.2954 37.6132 44.3717 37.8317 44.3717C38.0939 44.3717 38.2847 44.2445 38.4066 43.9899L36.123 38.103H37.8731L39.2 42.097L40.4717 38.103H42.1896L39.9497 44.1103C39.7243 44.7142 39.4714 45.14 39.1885 45.3853C38.9057 45.6306 38.5216 45.7532 38.0364 45.7532V45.7509Z" fill="#E4E4E7"/>
<path d="M43.8641 38.103H48.5485V43.9668H46.8951V39.5262H45.4164C45.4164 40.299 45.3865 40.9516 45.329 41.4838C45.2692 42.0161 45.191 42.4511 45.0898 42.7866C44.9886 43.1222 44.846 43.3813 44.6667 43.5641C44.4873 43.747 44.2895 43.8696 44.0803 43.9344C43.8687 44.0015 43.6088 44.0339 43.2961 44.0339C42.9833 44.0339 42.7211 44.0015 42.459 43.9344L42.5694 42.5899C42.7004 42.6108 42.8154 42.6223 42.9166 42.6223C43.0914 42.6223 43.2294 42.583 43.3306 42.4974C43.4317 42.4141 43.5283 42.2243 43.6203 41.9281C43.71 41.6342 43.7744 41.1784 43.8089 40.5605C43.8457 39.945 43.8641 39.1258 43.8641 38.1053V38.103Z" fill="#E4E4E7"/>
<path d="M50.0293 43.9668V38.103H51.6805V40.0399H52.8763C53.58 40.0399 54.1434 40.2042 54.5666 40.5328C54.9897 40.8614 55.2036 41.3427 55.2036 41.9767C55.2036 42.6108 55.0058 43.0851 54.6102 43.4369C54.2147 43.7909 53.6651 43.9668 52.9637 43.9668H50.0293ZM52.7153 41.2964H51.6805V42.6547H52.7245C53.2672 42.6547 53.5386 42.421 53.5386 41.9536C53.5386 41.7499 53.4696 41.5903 53.327 41.4723C53.1867 41.3566 52.9821 41.2964 52.713 41.2964H52.7153Z" fill="#E4E4E7"/>
<path d="M56.3242 43.9671V36.3076H57.9984V39.656L61.0845 36.3076H63.1083L60.0106 39.5588L63.2485 43.9671H61.2386L58.8792 40.7066L57.9984 41.6253V43.9671H56.3242Z" fill="#E4E4E7"/>
<path d="M69.2024 43.2123C68.5976 43.8024 67.8456 44.0986 66.9464 44.0986C66.0472 44.0986 65.2975 43.8047 64.6996 43.2169C64.1017 42.6291 63.8027 41.9072 63.8027 41.0464C63.8027 40.1855 64.1063 39.4705 64.7111 38.8804C65.3159 38.2903 66.0679 37.9941 66.9671 37.9941C67.8663 37.9941 68.6137 38.288 69.2116 38.8758C69.8095 39.4636 70.1084 40.1855 70.1084 41.0464C70.1084 41.9072 69.8049 42.6199 69.2001 43.2123H69.2024ZM66.9694 42.6662C67.427 42.6662 67.7904 42.5111 68.0663 42.2011C68.3423 41.891 68.4803 41.5068 68.4803 41.0464C68.4803 40.5859 68.3377 40.2202 68.0525 39.9032C67.7651 39.5862 67.3971 39.4265 66.9487 39.4265C66.5003 39.4265 66.1254 39.5816 65.8494 39.8916C65.5735 40.2017 65.4355 40.5859 65.4355 41.0464C65.4355 41.5068 65.5804 41.8725 65.8655 42.1895C66.1507 42.5065 66.5186 42.6662 66.9694 42.6662Z" fill="#E4E4E7"/>
<path d="M76.6445 38.103V43.9668H74.9911V41.7222H72.9582V43.9668H71.3047V38.103H72.9582V40.3546H74.9911V38.103H76.6445Z" fill="#E4E4E7"/>
<path d="M80.8731 44.0986C80.0038 44.0986 79.2794 43.8024 78.7045 43.2123C78.1273 42.6199 77.8398 41.9002 77.8398 41.0464C77.8398 40.1925 78.1296 39.4798 78.7091 38.8874C79.2886 38.2927 80.0176 37.9941 80.8938 37.9941C81.8298 37.9941 82.6002 38.3366 83.2096 39.0216L82.2414 40.0073C81.8367 39.6186 81.3813 39.4265 80.8823 39.4265C80.4776 39.4265 80.1395 39.5839 79.8728 39.8963C79.6037 40.211 79.4703 40.5951 79.4703 41.0464C79.4703 41.4976 79.606 41.891 79.8774 42.2011C80.1487 42.5111 80.5052 42.6662 80.949 42.6662C81.3928 42.6662 81.8505 42.4579 82.2851 42.0414L83.2533 43.0248C82.9336 43.3743 82.5933 43.6427 82.2322 43.8232C81.8712 44.006 81.4158 44.0962 80.8731 44.0962V44.0986Z" fill="#E4E4E7"/>
<path d="M88.8848 38.103V39.5262H87.1555V43.9668H85.4813V39.5262H83.752V38.103H88.8848Z" fill="#E4E4E7"/>
<path d="M89.7891 45.7161V38.1029H91.4425V38.9452C91.9071 38.3112 92.5119 37.9941 93.257 37.9941C94.0021 37.9941 94.6046 38.2672 95.1266 38.8156C95.6486 39.3617 95.9108 40.1069 95.9108 41.0464C95.9108 41.9858 95.6509 42.7194 95.1335 43.2609C94.6161 43.8047 93.9906 44.0777 93.257 44.0777C92.5234 44.0777 91.9278 43.7862 91.4425 43.203V45.7184H89.7891V45.7161ZM91.8266 42.2103C92.0979 42.5134 92.4337 42.6662 92.8315 42.6662C93.2294 42.6662 93.5674 42.5134 93.8411 42.2103C94.1148 41.9072 94.255 41.5115 94.255 41.0232C94.255 40.5349 94.117 40.1601 93.8411 39.8593C93.5651 39.5561 93.2271 39.4034 92.8315 39.4034C92.436 39.4034 92.0979 39.5538 91.8266 39.8593C91.5552 40.1624 91.4195 40.5581 91.4195 41.0464C91.4195 41.5346 91.5552 41.9095 91.8266 42.2103Z" fill="#E4E4E7"/>
<path d="M98.5188 45.7509C97.9968 45.7509 97.5069 45.6144 97.0493 45.346L97.6058 44.1427C97.8588 44.2954 98.0957 44.3717 98.3118 44.3717C98.574 44.3717 98.7649 44.2445 98.8891 43.9899L96.6055 38.103H98.3555L99.6824 42.097L100.954 38.103H102.672L100.432 44.1103C100.207 44.7142 99.9538 45.14 99.6709 45.3853C99.3904 45.6306 99.004 45.7532 98.5188 45.7532V45.7509Z" fill="#E4E4E7"/>
<path d="M103.648 43.9668V38.103H105.302V40.5096L107.39 38.103H109.292L107.151 40.5096L109.566 43.9668H107.606L106.052 41.7361L105.302 42.5552V43.9668H103.648Z" fill="#E4E4E7"/>
<path d="M114.848 38.103V39.5262H113.118V43.9668H111.444V39.5262H109.715V38.103H114.848Z" fill="#E4E4E7"/>
<path d="M0 52.0749V48.7959H0.56342V51.5658H1.84434V48.7959H2.41696V51.5658H3.70018V48.7959H4.2636V52.0749H0Z" fill="#E4E4E7"/>
<path d="M4.82227 52.0752L6.25496 48.7754H6.78849L8.22119 52.0752H7.61637L7.28752 51.2838H5.74674L5.41098 52.0752H4.82457H4.82227ZM5.95371 50.7747H7.07595L6.51253 49.4627L5.95371 50.7747Z" fill="#E4E4E7"/>
<path d="M8.53125 52.0749L9.71558 50.4088L8.57494 48.7959H9.25105L10.0605 49.9714L10.8746 48.7959H11.5323L10.3963 50.3995L11.576 52.0749H10.9022L10.0467 50.8346L9.18666 52.0749H8.53125Z" fill="#E4E4E7"/>
<path d="M11.9316 49.3328V48.7959H14.5786V49.3328H13.5414V52.0749H12.9688V49.3328H11.9316Z" fill="#E4E4E7"/>
<path d="M15.1816 52.0749V48.7959H15.7451V51.1909L17.3916 48.7959H17.9298V52.0749H17.3663V49.6891L15.7244 52.0749H15.1816Z" fill="#E4E4E7"/>
<path d="M18.7676 52.0749V48.7959H19.3402V50.1589H20.8948V48.7959H21.4674V52.0749H20.8948V50.6957H19.3402V52.0749H18.7676Z" fill="#E4E4E7"/>
<path d="M22.1609 50.4392C22.1609 50.2078 22.2022 49.988 22.2873 49.7797C22.3701 49.5715 22.4851 49.391 22.63 49.2382C22.7749 49.0855 22.9542 48.9652 23.1635 48.8749C23.3751 48.787 23.6004 48.7407 23.8396 48.7407C24.1202 48.7407 24.3593 48.7847 24.5594 48.8726C24.7572 48.9606 24.9435 49.0855 25.1159 49.2498L24.748 49.6756C24.6054 49.5437 24.4605 49.4442 24.3156 49.3725C24.1708 49.3007 24.0098 49.266 23.835 49.266C23.6326 49.266 23.4487 49.3169 23.2831 49.421C23.1175 49.5252 22.9887 49.6663 22.8967 49.8445C22.8048 50.0227 22.7588 50.2194 22.7588 50.4346C22.7588 50.7609 22.86 51.0362 23.0646 51.263C23.2693 51.4898 23.5246 51.6032 23.8327 51.6032C24.0213 51.6032 24.1846 51.5685 24.3271 51.4991C24.4697 51.4296 24.6169 51.3209 24.7687 51.1774L25.1366 51.5523C25.0147 51.6795 24.8952 51.7814 24.7756 51.86C24.656 51.941 24.5157 52.0058 24.3524 52.0544C24.1892 52.103 24.0098 52.1285 23.812 52.1285C23.5016 52.1285 23.221 52.0544 22.968 51.904C22.7151 51.7536 22.515 51.55 22.3724 51.2931C22.2298 51.0339 22.1562 50.747 22.1562 50.4346L22.1609 50.4392Z" fill="#E4E4E7"/>
<path d="M25.7363 52.0749V48.7959H26.3089V50.4458L27.8589 48.7959H28.5603L27.2058 50.2075L28.6224 52.0749H27.9279L26.8149 50.6008L26.3089 51.1238V52.0749H25.7363Z" fill="#E4E4E7"/>
<path d="M29.1055 52.0749V48.7959H29.6689V51.1909L31.3155 48.7959H31.8536V52.0749H31.2902V49.6891L29.6459 52.0749H29.1055Z" fill="#E4E4E7"/>
<path d="M32.6934 52.0751V48.7961H33.2568V51.1888L34.9033 48.7961H35.4392V52.0751H34.8758V49.6893L33.2338 52.0751H32.6934ZM33.3488 47.8913L33.6983 47.8242C33.7604 48.0371 33.8892 48.1459 34.0847 48.1459C34.2801 48.1459 34.4043 48.0394 34.471 47.8242L34.8137 47.8913C34.7838 48.0926 34.7033 48.2523 34.5745 48.368C34.4434 48.4837 34.2824 48.5416 34.0847 48.5416C33.8869 48.5416 33.7236 48.4837 33.5948 48.368C33.4637 48.2523 33.3833 48.095 33.3488 47.8913Z" fill="#E4E4E7"/>
<path d="M37.4082 51.5959L37.7187 51.1979C38.0199 51.4871 38.381 51.6329 38.8018 51.6329C38.9789 51.6329 39.1307 51.5866 39.2548 51.4987C39.3767 51.4084 39.4388 51.2881 39.4388 51.14C39.4388 50.9803 39.3698 50.86 39.2341 50.7813C39.0962 50.7027 38.9145 50.6633 38.6914 50.6633H38.3212V50.1843H38.6868C38.8984 50.1843 39.0617 50.145 39.1813 50.0594C39.3008 49.9761 39.3606 49.858 39.3606 49.7053C39.3606 49.5688 39.3031 49.4554 39.1905 49.3721C39.0755 49.2865 38.9283 49.2448 38.7443 49.2448C38.5603 49.2448 38.3902 49.2749 38.2453 49.3374C38.0981 49.3975 37.9624 49.4901 37.8359 49.6128L37.5278 49.2356C37.6957 49.0759 37.8796 48.9533 38.0797 48.8699C38.2775 48.7866 38.512 48.7427 38.7857 48.7427C39.1215 48.7427 39.3951 48.826 39.6067 48.9903C39.8183 49.1546 39.9263 49.3652 39.9263 49.622C39.9263 49.9761 39.7447 50.2306 39.3767 50.388C39.5699 50.4481 39.7263 50.543 39.8413 50.6726C39.9562 50.8045 40.0137 50.9711 40.0137 51.1747C40.0137 51.4501 39.9034 51.6792 39.6849 51.862C39.4641 52.0448 39.1767 52.1351 38.8179 52.1351C38.5097 52.1351 38.2453 52.0911 38.0245 52.0031C37.8014 51.9152 37.5968 51.781 37.4105 51.5982L37.4082 51.5959Z" fill="#E4E4E7"/>
<path d="M40.4043 52.0752L41.837 48.7754H42.3705L43.8032 52.0752H43.1984L42.8695 51.2838H41.3288L40.993 52.0752H40.4066H40.4043ZM41.5357 50.7747H42.658L42.0946 49.4627L41.5357 50.7747Z" fill="#E4E4E7"/>
<path d="M44.3555 52.0749V48.7959H45.8181C46.1952 48.7959 46.4781 48.8931 46.6712 49.0852C46.8161 49.2309 46.8897 49.4161 46.8897 49.6359C46.8897 49.9622 46.7356 50.2051 46.4229 50.3671C46.6298 50.4366 46.7908 50.5361 46.9012 50.661C47.0116 50.7883 47.0691 50.9595 47.0691 51.1724C47.0691 51.4617 46.961 51.6838 46.7448 51.8389C46.5287 51.9939 46.2366 52.0703 45.8664 52.0703H44.3578L44.3555 52.0749ZM44.9189 50.1774H45.7008C45.8916 50.1774 46.0434 50.138 46.1538 50.0617C46.2642 49.983 46.3171 49.8719 46.3171 49.7215C46.3171 49.5919 46.2665 49.4901 46.1676 49.4184C46.0664 49.3443 45.9284 49.3073 45.7445 49.3073H44.9189V50.1774ZM44.9189 51.5658H45.8687C46.0664 51.5658 46.2205 51.5265 46.3309 51.4478C46.439 51.3691 46.4942 51.2557 46.4942 51.1076C46.4942 50.9665 46.439 50.8577 46.3263 50.7813C46.2159 50.7073 46.048 50.668 45.825 50.668H44.9189V51.5658Z" fill="#E4E4E7"/>
<path d="M47.5684 50.4389C47.5684 50.2098 47.6121 49.9923 47.6948 49.784C47.7799 49.578 47.8972 49.3975 48.0467 49.2448C48.1939 49.0898 48.3755 48.9695 48.5894 48.8792C48.8033 48.7866 49.031 48.7427 49.277 48.7427C49.5231 48.7427 49.7507 48.789 49.9623 48.8769C50.1739 48.9648 50.3533 49.0875 50.5027 49.2402C50.6499 49.3929 50.7649 49.5711 50.85 49.7817C50.9328 49.9899 50.9765 50.2075 50.9765 50.4412C50.9765 50.6749 50.9328 50.8855 50.8477 51.0937C50.7649 51.302 50.6476 51.4825 50.4981 51.6352C50.3487 51.7879 50.1693 51.9106 49.9554 52.0008C49.7392 52.0911 49.5116 52.1374 49.2678 52.1374C48.9413 52.1374 48.6492 52.061 48.3893 51.9083C48.1272 51.7532 47.9271 51.5496 47.7845 51.2904C47.6419 51.0336 47.5707 50.7489 47.5707 50.4412L47.5684 50.4389ZM48.1686 50.4389C48.1686 50.6518 48.2146 50.8461 48.3089 51.0243C48.4008 51.2025 48.5342 51.3436 48.7044 51.4501C48.8769 51.5565 49.0654 51.6075 49.277 51.6075C49.4886 51.6075 49.6772 51.5565 49.845 51.4524C50.0129 51.346 50.1463 51.2071 50.2383 51.0289C50.3303 50.8508 50.3763 50.6541 50.3763 50.4412C50.3763 50.2283 50.3303 50.0339 50.236 49.8557C50.1417 49.6775 50.0106 49.5341 49.8404 49.4299C49.6703 49.3258 49.4794 49.2726 49.2701 49.2726C49.0608 49.2726 48.87 49.3235 48.6998 49.4299C48.5319 49.5341 48.4008 49.6752 48.3089 49.8511C48.2169 50.0293 48.1709 50.226 48.1709 50.4412L48.1686 50.4389Z" fill="#E4E4E7"/>
<path d="M51.293 51.5659H51.6172C51.7575 51.2882 51.8633 50.9666 51.9323 50.6033C52.0013 50.2423 52.0358 49.7957 52.0358 49.2635V48.7983H54.3078V51.5682H54.7586L54.6781 52.7854H54.1607V52.0773H51.8656L51.8104 52.7854H51.293V51.5682V51.5659ZM52.2335 51.5659H53.7375V49.3236H52.59V49.6985C52.59 50.4598 52.4704 51.0823 52.2335 51.5659Z" fill="#E4E4E7"/>
<path d="M56.6055 52.0749V48.7959H57.2149L58.206 50.3486L59.1972 48.7959H59.8043V52.0749H59.2317V49.7238L58.206 51.2719H58.1876L57.1689 49.7331V52.0749H56.6055Z" fill="#E4E4E7"/>
<path d="M60.5 50.4389C60.5 50.2098 60.5414 49.9923 60.6265 49.784C60.7116 49.578 60.8266 49.3975 60.976 49.2448C61.1255 49.0898 61.3049 48.9695 61.5188 48.8792C61.7326 48.7866 61.9603 48.7427 62.2041 48.7427C62.4478 48.7427 62.6778 48.789 62.8894 48.8769C63.1009 48.9648 63.2826 49.0875 63.4298 49.2402C63.5793 49.3929 63.6919 49.5711 63.777 49.7817C63.8598 49.9899 63.9035 50.2075 63.9035 50.4412C63.9035 50.6749 63.8621 50.8855 63.777 51.0937C63.6919 51.302 63.577 51.4825 63.4275 51.6352C63.278 51.7879 63.0986 51.9106 62.8825 52.0008C62.6686 52.0911 62.4409 52.1374 62.1949 52.1374C61.8706 52.1374 61.5763 52.061 61.3164 51.9083C61.0565 51.7532 60.8542 51.5496 60.7139 51.2904C60.5713 51.0336 60.5 50.7489 60.5 50.4412V50.4389ZM61.0979 50.4389C61.0979 50.6518 61.1439 50.8461 61.2382 51.0243C61.3302 51.2025 61.4636 51.3436 61.6337 51.4501C61.8039 51.5565 61.9948 51.6075 62.2041 51.6075C62.4133 51.6075 62.6042 51.5565 62.7744 51.4524C62.9423 51.346 63.0733 51.2071 63.1653 51.0289C63.2573 50.8508 63.3056 50.6541 63.3056 50.4412C63.3056 50.2283 63.2573 50.0339 63.1653 49.8557C63.071 49.6775 62.94 49.5341 62.7675 49.4299C62.5973 49.3258 62.4064 49.2726 62.1972 49.2726C61.9879 49.2726 61.797 49.3235 61.6291 49.4299C61.4613 49.5341 61.3279 49.6752 61.2382 49.8511C61.1462 50.0293 61.1002 50.226 61.1002 50.4412L61.0979 50.4389Z" fill="#E4E4E7"/>
<path d="M64.2227 51.5659H64.5446C64.6872 51.2882 64.793 50.9666 64.862 50.6033C64.931 50.2423 64.9655 49.7957 64.9655 49.2635V48.7983H67.2352V51.5682H67.686L67.6078 52.7854H67.0904V52.0773H64.7953L64.7401 52.7854H64.2227V51.5682V51.5659ZM65.1609 51.5659H66.6649V49.3236H65.5174V49.6985C65.5174 50.4598 65.4001 51.0823 65.1609 51.5659Z" fill="#E4E4E7"/>
<path d="M67.8379 48.7959H68.4795L69.4937 50.705L70.3882 48.7959H71.0068L69.7351 51.3598C69.6017 51.6306 69.45 51.8273 69.2821 51.9476C69.1142 52.0679 68.921 52.1281 68.7026 52.1281C68.4841 52.1281 68.2702 52.0726 68.0656 51.9638L68.284 51.5334C68.4013 51.6028 68.5347 51.6352 68.6842 51.6352C68.767 51.6352 68.852 51.6075 68.9463 51.5519C69.0383 51.4964 69.1211 51.4061 69.197 51.2835L67.8379 48.7982V48.7959Z" fill="#E4E4E7"/>
<path d="M71.1488 52.0633L71.2063 51.5982C71.2615 51.6121 71.3213 51.619 71.3926 51.619C71.4454 51.619 71.4914 51.6144 71.5328 51.6028C71.5719 51.5913 71.6156 51.5681 71.6639 51.5334C71.7122 51.4987 71.7513 51.4478 71.7835 51.383C71.8157 51.3182 71.8502 51.2326 71.8824 51.1238C71.9146 51.0151 71.9422 50.8832 71.9629 50.7351C71.9836 50.5846 71.9997 50.3995 72.0112 50.1843C72.0227 49.9668 72.0296 49.7192 72.0296 49.4461V48.7959H74.2763V52.0749H73.7037V49.3235H72.5815V49.6174C72.5815 50.027 72.5654 50.3787 72.5355 50.6749C72.5033 50.9688 72.4596 51.2094 72.4044 51.3946C72.3492 51.5797 72.2756 51.7255 72.1836 51.8319C72.094 51.9384 71.9997 52.0124 71.8985 52.0541C71.7996 52.0934 71.68 52.1142 71.542 52.1142C71.404 52.1142 71.2776 52.098 71.1465 52.0633H71.1488Z" fill="#E4E4E7"/>
<path d="M75.1035 52.0749V48.7959H75.6669V49.9784H76.4166C76.7892 49.9784 77.0858 50.0686 77.3066 50.2468C77.5297 50.4273 77.6401 50.6795 77.6401 51.0035C77.6401 51.3275 77.5297 51.5959 77.3089 51.7879C77.0881 51.98 76.7915 52.0749 76.4143 52.0749H75.1058H75.1035ZM75.6669 51.5658H76.4028C76.619 51.5658 76.7823 51.5172 76.8996 51.42C77.0146 51.3228 77.0743 51.184 77.0743 50.9989C77.0743 50.8299 77.0145 50.7027 76.8973 50.6124C76.7777 50.5222 76.6098 50.4782 76.3936 50.4782H75.6646V51.5635L75.6669 51.5658Z" fill="#E4E4E7"/>
<path d="M78.2422 52.0749V48.7959H78.8171V50.1589H80.3694V48.7959H80.942V52.0749H80.3694V50.6957H78.8171V52.0749H78.2422Z" fill="#E4E4E7"/>
<path d="M81.7793 52.0749V48.7959H82.3427V49.9784H83.0901C83.4627 49.9784 83.7593 50.0686 83.9824 50.2468C84.2032 50.4273 84.3158 50.6795 84.3158 51.0035C84.3158 51.3275 84.2055 51.5959 83.9847 51.7879C83.7639 51.98 83.4673 52.0749 83.0901 52.0749H81.7816H81.7793ZM82.3427 51.5658H83.0786C83.2925 51.5658 83.4581 51.5172 83.5753 51.42C83.6903 51.3228 83.7501 51.184 83.7501 50.9989C83.7501 50.8299 83.6903 50.7027 83.573 50.6124C83.4558 50.5222 83.2856 50.4782 83.0694 50.4782H82.3427V51.5635V51.5658ZM84.7022 52.0749V48.7959H85.2656V52.0749H84.7022Z" fill="#E4E4E7"/>
<path d="M85.8633 52.0749L87.0476 50.4088L85.907 48.7959H86.5831L87.3926 49.9714L88.2067 48.7959H88.8644L87.7283 50.3995L88.908 52.0749H88.2342L87.3788 50.8346L86.5187 52.0749H85.8633Z" fill="#E4E4E7"/>
<path d="M90.8926 52.0749V48.7959H91.4652V50.4458L93.0152 48.7959H93.7166L92.3621 50.2075L93.7787 52.0749H93.0842L91.9711 50.6008L91.4652 51.1238V52.0749H90.8926Z" fill="#E4E4E7"/>
<path d="M94.1172 50.4389C94.1172 50.2098 94.1609 49.9923 94.246 49.784C94.3288 49.578 94.446 49.3975 94.5955 49.2448C94.745 49.0898 94.9244 48.9695 95.1382 48.8792C95.3498 48.7866 95.5798 48.7427 95.8235 48.7427C96.0673 48.7427 96.2973 48.789 96.5089 48.8769C96.7204 48.9648 96.8998 49.0875 97.0493 49.2402C97.1965 49.3929 97.3114 49.5711 97.3965 49.7817C97.4816 49.9899 97.523 50.2075 97.523 50.4412C97.523 50.6749 97.4793 50.8855 97.3965 51.0937C97.3114 51.302 97.1942 51.4825 97.0447 51.6352C96.8975 51.7879 96.7158 51.9106 96.502 52.0008C96.2858 52.0911 96.0604 52.1374 95.8143 52.1374C95.4901 52.1374 95.1957 52.061 94.9359 51.9083C94.676 51.7532 94.4736 51.5496 94.3311 51.2904C94.1885 51.0336 94.1172 50.7489 94.1172 50.4412V50.4389ZM94.7174 50.4389C94.7174 50.6518 94.7634 50.8461 94.8577 51.0243C94.9497 51.2025 95.0831 51.3436 95.2532 51.4501C95.4234 51.5565 95.6143 51.6075 95.8235 51.6075C96.0328 51.6075 96.2237 51.5565 96.3916 51.4524C96.5617 51.346 96.6928 51.2071 96.7848 51.0289C96.8768 50.8508 96.9228 50.6541 96.9228 50.4412C96.9228 50.2283 96.8768 50.0339 96.7825 49.8557C96.6905 49.6775 96.5571 49.5341 96.387 49.4299C96.2168 49.3258 96.0259 49.2726 95.8167 49.2726C95.6074 49.2726 95.4165 49.3235 95.2463 49.4299C95.0785 49.5341 94.9474 49.6752 94.8554 49.8511C94.7634 50.0293 94.7174 50.226 94.7174 50.4412V50.4389Z" fill="#E4E4E7"/>
<path d="M98.2188 52.0749V48.7959H98.7914V50.1589H100.346V48.7959H100.919V52.0749H100.346V50.6957H98.7914V52.0749H98.2188Z" fill="#E4E4E7"/>
<path d="M101.61 50.4392C101.61 50.2078 101.649 49.988 101.734 49.7797C101.817 49.5715 101.932 49.391 102.077 49.2382C102.222 49.0855 102.401 48.9652 102.61 48.8749C102.822 48.787 103.047 48.7407 103.287 48.7407C103.567 48.7407 103.806 48.7847 104.006 48.8726C104.204 48.9606 104.39 49.0855 104.563 49.2498L104.195 49.6756C104.052 49.5437 103.907 49.4442 103.763 49.3725C103.618 49.3007 103.457 49.266 103.282 49.266C103.08 49.266 102.896 49.3169 102.73 49.421C102.564 49.5252 102.436 49.6663 102.344 49.8445C102.252 50.0227 102.206 50.2194 102.206 50.4346C102.206 50.7609 102.307 51.0362 102.512 51.263C102.716 51.4898 102.974 51.6032 103.28 51.6032C103.468 51.6032 103.631 51.5685 103.774 51.4991C103.914 51.4296 104.062 51.3209 104.216 51.1774L104.584 51.5523C104.462 51.6795 104.342 51.7814 104.222 51.86C104.103 51.941 103.963 52.0058 103.799 52.0544C103.636 52.103 103.457 52.1285 103.261 52.1285C102.951 52.1285 102.668 52.0544 102.415 51.904C102.162 51.7536 101.962 51.55 101.819 51.2931C101.677 51.0339 101.605 50.747 101.605 50.4346L101.61 50.4392Z" fill="#E4E4E7"/>
<path d="M104.947 49.3328V48.7959H107.594V49.3328H106.557V52.0749H105.984V49.3328H104.947Z" fill="#E4E4E7"/>
<path d="M108.199 52.0749V48.7959H109.487C109.866 48.7959 110.168 48.8977 110.391 49.0967C110.614 49.298 110.724 49.5665 110.724 49.9043C110.724 50.1427 110.664 50.3486 110.545 50.5222C110.425 50.6957 110.269 50.823 110.076 50.9063C109.883 50.9896 109.664 51.0313 109.42 51.0313H108.772V52.0772H108.199V52.0749ZM108.772 50.5013H109.436C109.65 50.5013 109.82 50.4458 109.947 50.337C110.073 50.2306 110.138 50.0848 110.138 49.9066C110.138 49.7169 110.076 49.5711 109.952 49.4716C109.825 49.3698 109.655 49.3212 109.439 49.3212H108.774V50.499L108.772 50.5013Z" fill="#E4E4E7"/>
<path d="M111.006 48.7959H111.647L112.662 50.705L113.556 48.7959H114.175L112.905 51.3598C112.772 51.6306 112.62 51.8273 112.452 51.9476C112.284 52.0679 112.091 52.1281 111.873 52.1281C111.654 52.1281 111.44 52.0726 111.236 51.9638L111.454 51.5334C111.572 51.6028 111.705 51.6352 111.854 51.6352C111.937 51.6352 112.022 51.6075 112.114 51.5519C112.206 51.4964 112.289 51.4061 112.365 51.2835L111.008 48.7982L111.006 48.7959Z" fill="#E4E4E7"/>
<path d="M114.713 52.0749V48.7959H115.286V50.4458L116.835 48.7959H117.537L116.182 50.2075L117.599 52.0749H116.907L115.791 50.6008L115.286 51.1238V52.0749H114.713Z" fill="#E4E4E7"/>
<path d="M118.084 52.0749V48.7959H118.657V51.5496H120.184V48.7959H120.747V51.5496H121.195L121.117 52.7691H120.6V52.0749H118.084Z" fill="#E4E4E7"/>
<path d="M121.664 52.0749V48.7959H122.227V51.1909L123.874 48.7959H124.41V52.0749H123.846V49.6891L122.204 52.0749H121.664Z" fill="#E4E4E7"/>
<path d="M125.252 52.0751V48.7961H125.815V51.1888L127.464 48.7961H128V52.0751H127.437V49.6893L125.795 52.0751H125.252ZM125.91 47.8913L126.259 47.8242C126.321 48.0371 126.45 48.1459 126.646 48.1459C126.841 48.1459 126.965 48.0394 127.032 47.8242L127.375 47.8913C127.345 48.0926 127.264 48.2523 127.135 48.368C127.007 48.4837 126.843 48.5416 126.646 48.5416C126.448 48.5416 126.285 48.4837 126.156 48.368C126.025 48.2523 125.944 48.095 125.912 47.8913H125.91Z" fill="#E4E4E7"/>
<path d="M44.6484 27.301H50.9863V6.09521L44.6484 7.75901V27.301Z" fill="#E4E4E7"/>
<path d="M93.3614 10.7255V30.3069H56.7598V0L93.3614 10.7255ZM63.7048 26.7317H88.1319V13.6088L63.7048 6.45847V26.7317Z" fill="#E4E4E7"/>
<path d="M34.638 30.3067L21.1895 30.1887L34.638 30.0684V30.3067Z" fill="#E4E4E7"/>
<path d="M93.3613 30.3067L106.808 30.1887L93.3613 30.0684V30.3067Z" fill="#E4E4E7"/>
</svg>
