<svg width="92" height="38" viewBox="0 0 92 38" fill="none" xmlns="http://www.w3.org/2000/svg">
<path d="M44.9881 0L33.0512 17.0417L28.1271 0H19.2387H19.1865L0 27.4001H10.2821L22.2189 10.3343L27.139 27.4001H36.0836L55.25 0H44.9881Z" fill="#E4E4E7"/>
<path d="M80.9742 27.4001H91.2563L72.0657 0H70.8528H61.8078H60.5948L41.4043 27.4001H51.6864H51.6904H72.0055L66.515 19.548L57.1648 19.5721L66.3303 6.46646L80.9742 27.4001Z" fill="#E4E4E7"/>
<path d="M11.4256 31.5259H13.7632V37.9843H11.1364L7.92328 33.8554V37.9843H5.59375V31.5259H8.80288L11.4296 34.6948V31.5259H11.4256Z" fill="#E4E4E7"/>
<path d="M15 31.5381H21.9966V33.229H17.3295V33.9961H21.9966V35.5385H17.3295V36.3056H21.9966V38.0005H15V31.5421V31.5381Z" fill="#E4E4E7"/>
<path d="M33.6262 31.5259H36.253L33.6262 37.9843H30.8549L29.5415 34.5181L28.2282 37.9843H25.4568L22.8301 31.5259H25.4568L26.8425 35.3134L28.2322 31.5259H30.8589L32.2446 35.3134L33.6343 31.5259H33.6262Z" fill="#E4E4E7"/>
<path d="M41.1271 31.5381H43.8984L47.1076 37.9965H44.4808L43.8502 36.655H41.1753L40.5447 37.9965H37.918L41.1271 31.5381ZM41.6934 35.193H43.3361L42.5168 33.2692L41.6934 35.193Z" fill="#E4E4E7"/>
<path d="M56.7422 31.5259H59.6621L61.9917 34.5141L64.3292 31.5259H67.2452V37.9843H64.9156V34.3173L62.5781 37.9843H61.4133L59.0757 34.3173V37.9843H56.7462V31.5259H56.7422Z" fill="#E4E4E7"/>
<path d="M55.6634 31.5342H47.6426V37.9926H49.9761V36.2173H52.0566L53.1812 37.9926H55.6634L54.5227 36.2093H55.6634V31.5342ZM53.3258 33.2813V34.4581H49.9721V33.2813H53.3258Z" fill="#E4E4E7"/>
<path d="M85.6692 31.5342H77.6484V37.9926H79.982V36.2173H82.0625L83.1871 37.9926H85.6692L84.5286 36.2093H85.6692V31.5342ZM83.3317 33.2813V34.4581H79.978V33.2813H83.3317Z" fill="#E4E4E7"/>
<path d="M75.5026 31.5342H68.4297V37.9926H70.7592L74.2615 37.9886L76.5911 37.9926V31.5342H75.4986H75.5026ZM70.7632 36.2374V33.2773H74.2656V36.2374H70.7632Z" fill="#E4E4E7"/>
</svg>
