<svg width="160" height="25" viewBox="0 0 160 25" fill="none" xmlns="http://www.w3.org/2000/svg">
<path d="M0.300221 20.4826L11.1415 2.45101C11.9784 1.05995 14.0417 1.05995 14.8775 2.45101L25.7188 20.4826C26.5643 21.8894 25.5235 23.6611 23.8507 23.6611H2.16825C0.495501 23.6611 -0.545276 21.8904 0.300221 20.4826Z" fill="#E4E4E7"/>
<path d="M35.5151 0.0017348C30.5923 -0.0788005 26.3166 2.65208 24.2619 6.65479C23.7168 7.7164 23.7629 8.97568 24.3788 9.99959L32.2372 23.0694C32.5227 23.5442 33.014 23.8653 33.572 23.9427C34.1374 24.0211 34.7158 24.0619 35.3038 24.0619C42.1021 24.0619 47.6171 18.7037 47.646 12.0831C47.6761 5.53462 42.233 0.11051 35.5151 0.0017348Z" fill="#E4E4E7"/>
<path d="M66.6111 0.401367H49.8588C48.8009 0.401367 48.1903 1.56756 48.8073 2.40533C50.8245 5.14563 52.009 8.50093 51.9929 12.1041C51.9768 15.6571 50.8051 18.9506 48.8277 21.6481C48.2086 22.4911 48.8137 23.6625 49.877 23.6625H66.6111C68.1207 23.6625 69.3449 22.4691 69.3449 20.9975V3.06635C69.3449 1.59475 68.1207 0.401367 66.6111 0.401367Z" fill="#E4E4E7"/>
<path d="M139.336 14.8789C137.662 14.8789 136.589 13.5819 136.589 11.9713C136.589 10.3605 137.618 9.04266 139.336 9.04266C141.052 9.04266 142.06 10.3605 142.06 11.9713C142.06 13.5819 141.009 14.8789 139.336 14.8789ZM140.043 6.07227C138.455 6.07227 137.21 6.72073 136.545 7.55746V6.38604H133.434V21.0288H136.696V16.4477C137.404 17.2636 138.691 17.8492 139.979 17.8492C143.37 17.8492 145.366 15.4228 145.366 11.9294C145.366 8.64521 143.326 6.07227 140.043 6.07227ZM156.524 6.3442L153.499 13.8957H153.069L150.086 6.3442H146.31L150.859 16.636L151.459 17.5982L151.224 17.933H147.511V21.0288H149.657C152.382 21.0288 154.099 19.8365 155.258 17.1798L160 6.3442H156.524ZM128.992 13.7702C127.833 13.7702 126.889 14.6906 126.889 15.8201C126.889 16.9707 127.833 17.8911 128.992 17.8911C130.172 17.8911 131.116 16.9707 131.116 15.8201C131.116 14.6906 130.172 13.7702 128.992 13.7702ZM120.838 6.3442L117.683 10.8416H117.34L114.228 6.3442H110.365V17.5982H113.584V11.4064H114.034L116.695 15.2345H118.241L120.945 11.4064H121.352V17.5982H124.571V6.3442H120.838ZM102.146 14.7952C100.472 14.7952 99.442 13.5401 99.442 11.9713C99.442 10.4232 100.451 9.16817 102.146 9.16817C103.863 9.16817 104.872 10.4232 104.872 11.9713C104.872 13.5401 103.82 14.7952 102.146 14.7952ZM102.146 6.07227C98.3479 6.07227 96.0728 8.72889 96.0728 11.9713C96.0728 15.2345 98.4339 17.8701 102.146 17.8701C105.88 17.8701 108.219 15.2345 108.219 11.9713C108.219 8.72889 105.966 6.07227 102.146 6.07227ZM87.9185 9.21001L90.0001 14.586H85.4722L87.5323 9.21001H87.9185ZM93.3694 14.586L90.1288 6.3442H85.2147L81.9743 14.586H80.1074V20.213H83.219V17.5982H91.9744V20.213H95.1072V14.586H93.3694Z" fill="#E4E4E7"/>
</svg>
