<svg width="154" height="24" viewBox="0 0 154 24" fill="none" xmlns="http://www.w3.org/2000/svg">
<path d="M10.0574 10.217L11.8659 10.217L11.8659 0.137208L9.54171 0.137208L5.96333 7.86081L2.36904 0.137207L0.00390625 0.137207L0.00390537 10.217L1.81468 10.217L1.81468 3.12567L5.09543 10.217L6.74716 10.217L10.0574 3.05972L10.0574 10.217Z" fill="#E4E4E7"/>
<path d="M25.3368 10.2193L27.2635 10.2193L24.0827 0.137208L19.7137 0.137207L16.5352 10.2193L18.4073 10.2193L19.0957 8.0132L24.6484 8.0132L25.3368 10.2193ZM19.6296 6.31427L21.036 1.84068L22.7331 1.84068L24.1259 6.31428L19.6296 6.31427Z" fill="#E4E4E7"/>
<path d="M33.3554 6.055L38.8195 6.055L38.8195 10.217L40.628 10.217L40.628 0.137208L38.8195 0.137208L38.8195 4.29922L33.3554 4.29922L33.3554 0.137207L31.5469 0.137207L31.5469 10.217L33.3554 10.217L33.3554 6.055Z" fill="#E4E4E7"/>
<path d="M47.5381 10.217L49.6124 10.217L54.863 0.137208L52.8046 0.137208L49.7624 6.08002L46.4952 0.137207L44.3164 0.137207L48.7377 7.95178L47.5381 10.217Z" fill="#E4E4E7"/>
<path d="M60.5622 8.63334L62.039 8.63334L62.039 10.3573L63.8475 10.3573L63.8475 8.63334L65.3243 8.63334C67.5713 8.63334 69.0799 7.24373 69.0799 5.17864C69.0799 3.11128 67.5713 1.72394 65.3243 1.72394L63.8475 1.72394L63.8475 6.15534e-07L62.039 4.5743e-07L62.039 1.72394L60.5622 1.72394C58.3152 1.72394 56.8066 3.11355 56.8066 5.17864C56.8066 7.246 58.3152 8.63334 60.5622 8.63334ZM63.8498 3.47972L65.3266 3.47972C66.5557 3.47972 67.2033 4.06649 67.2033 5.17864C67.2033 6.29078 66.5535 6.87756 65.3266 6.87756L63.8498 6.87756L63.8498 3.47972ZM60.5622 3.47972L62.039 3.47972L62.039 6.87983L60.5622 6.87983C59.3354 6.87983 58.6856 6.29305 58.6856 5.18091C58.6856 4.06649 59.3354 3.47972 60.5622 3.47972Z" fill="#E4E4E7"/>
<path d="M74.4769 8.0132L80.0296 8.0132L80.718 10.2193L82.6447 10.2193L79.4639 0.137208L75.0948 0.137207L71.9141 10.2193L73.7862 10.2193L74.4769 8.0132ZM76.4194 1.8384L78.1166 1.8384L79.5116 6.312L75.0131 6.312L76.4194 1.8384Z" fill="#E4E4E7"/>
<path d="M88.7401 6.055L90.0761 6.055L93.5454 10.217L95.8265 10.217L91.5597 5.0543L95.7401 0.137208L93.5749 0.137208L90.0488 4.29922L88.7401 4.29922L88.7401 0.137207L86.9316 0.137207L86.9316 10.217L88.7401 10.217L88.7401 6.055Z" fill="#E4E4E7"/>
<path d="M102.006 1.89299L105.98 1.89299L105.98 10.217L107.788 10.217L107.788 1.89299L111.762 1.89299L111.762 10.217L113.573 10.217L113.573 0.137208L100.195 0.137207L100.195 10.217L102.006 10.217L102.006 1.89299Z" fill="#E4E4E7"/>
<path d="M121.112 10.217L123.184 10.217L128.437 0.137208L126.378 0.137208L123.336 6.08002L120.069 0.137207L117.893 0.137207L122.312 7.95178L121.112 10.217Z" fill="#E4E4E7"/>
<path d="M138.002 0.137207L132.797 0.137207L132.797 10.2193L134.608 10.2193L134.608 6.22103L138.004 6.22103C139.979 6.22103 141.305 4.99744 141.305 3.17798C141.301 1.35852 139.974 0.137208 138.002 0.137207ZM137.961 4.50618L134.605 4.50618L134.605 1.86569L137.961 1.86569C138.947 1.86569 139.424 2.29554 139.424 3.18026C139.424 4.07179 138.945 4.50618 137.961 4.50618Z" fill="#E4E4E7"/>
<path d="M145.828 8.0132L151.381 8.0132L152.07 10.2193L153.996 10.2193L150.815 0.137208L146.446 0.137207L143.266 10.2193L145.138 10.2193L145.828 8.0132ZM147.771 1.8384L149.468 1.8384L150.861 6.312L146.362 6.312L147.771 1.8384Z" fill="#E4E4E7"/>
<path d="M5.44822 19.0502C5.13015 18.8842 4.76436 18.7932 4.35313 18.7819L3.57611 18.7819L3.57611 18.3384L2.86952 18.3384L2.86952 18.7819L2.0925 18.7819C1.68127 18.7932 1.31548 18.8819 1.00195 19.0502C0.683869 19.2163 0.438494 19.4392 0.263551 19.7189C0.0886082 19.9986 -1.71986e-07 20.3057 -2.00816e-07 20.6354C-2.30044e-07 20.9698 0.0886081 21.2768 0.263551 21.5565C0.438494 21.8363 0.681597 22.0569 1.00195 22.2252C1.31548 22.3912 1.68127 22.4822 2.0925 22.4936L2.86952 22.4936L2.86952 22.9371L3.57611 22.9371L3.57611 22.4936L4.35313 22.4936C4.76436 22.4822 5.13015 22.3935 5.44822 22.2252C5.76176 22.0592 6.00713 21.8363 6.18208 21.5565C6.35702 21.2768 6.44563 20.9698 6.44563 20.6354C6.44563 20.3057 6.35702 19.9986 6.18208 19.7189C6.00713 19.4392 5.76176 19.2185 5.44822 19.0502ZM2.09477 21.8636C1.81986 21.859 1.57903 21.8022 1.37001 21.693C1.16326 21.5838 1.00422 21.436 0.892891 21.2541C0.779291 21.0721 0.722492 20.8652 0.722492 20.6354C0.722492 20.4103 0.781563 20.2033 0.892891 20.0214C1.00649 19.8394 1.16553 19.6916 1.37001 19.5824C1.57903 19.4733 1.81986 19.4164 2.09477 19.4119L2.87179 19.4119L2.87179 21.8636L2.09477 21.8636ZM5.55501 21.2541C5.44595 21.436 5.28237 21.5838 5.07789 21.693C4.86887 21.8022 4.62804 21.859 4.35313 21.8636L3.57611 21.8636L3.57611 19.4119L4.35313 19.4119C4.62804 19.4164 4.86887 19.4733 5.07789 19.5824C5.28464 19.6916 5.44595 19.8394 5.55501 20.0214C5.66861 20.2033 5.72541 20.4103 5.72541 20.6354C5.72768 20.8652 5.66861 21.0721 5.55501 21.2541Z" fill="#E4E4E7"/>
<path d="M10.1263 20.5378L8.4178 20.5378L7.6635 18.5933L6.91602 18.5933L7.94523 21.1996L9.86051 21.1996L9.24253 22.7189L9.97865 22.7189L11.6099 18.5933L10.8806 18.5933L10.1263 20.5378Z" fill="#E4E4E7"/>
<path d="M15.6521 18.5933L13.1393 18.5933L12.2555 22.0593L11.7852 22.0593L11.7852 23.4853L12.4736 23.4853L12.4736 22.7189L16.3178 22.7189L16.3178 23.4853L17.0062 23.4853L17.0062 22.0593L16.5359 22.0593L15.6521 18.5933ZM12.9461 22.0593L13.6709 19.2528L15.1227 19.2528L15.8475 22.0593L12.9461 22.0593Z" fill="#E4E4E7"/>
<path d="M137.438 21.0996L137.231 21.0996L136.113 18.5933L135.029 18.5933L135.029 22.7189L135.729 22.7189L135.729 19.6372L135.7 19.3415L135.736 19.3415L136.806 21.7478L137.867 21.7478L138.939 19.3415L138.973 19.3415L138.944 19.6372L138.944 22.7189L139.646 22.7189L139.646 18.5933L138.562 18.5933L137.438 21.0996Z" fill="#E4E4E7"/>
<path d="M144.074 18.7685C143.737 18.5775 143.362 18.4819 142.947 18.4819C142.531 18.4819 142.154 18.5775 141.82 18.7685C141.483 18.9595 141.22 19.2211 141.027 19.5531C140.834 19.8852 140.738 20.2559 140.738 20.6653C140.738 21.0747 140.834 21.4454 141.027 21.7774C141.22 22.1095 141.483 22.371 141.82 22.5621C142.156 22.7531 142.531 22.8486 142.947 22.8486C143.362 22.8486 143.74 22.7531 144.074 22.5621C144.41 22.371 144.673 22.1095 144.866 21.7774C145.06 21.4454 145.155 21.0747 145.155 20.6653C145.155 20.2559 145.06 19.8852 144.866 19.5531C144.673 19.2188 144.41 18.9595 144.074 18.7685ZM144.23 21.4522C144.105 21.6796 143.93 21.8593 143.705 21.9889C143.481 22.1186 143.228 22.1845 142.947 22.1845C142.665 22.1845 142.41 22.1186 142.188 21.9889C141.965 21.8593 141.79 21.6796 141.663 21.4522C141.538 21.2248 141.474 20.9609 141.474 20.663C141.474 20.3651 141.538 20.1013 141.663 19.8738C141.788 19.6464 141.963 19.4667 142.188 19.3371C142.41 19.2074 142.665 19.1415 142.947 19.1415C143.228 19.1415 143.483 19.2074 143.705 19.3371C143.928 19.4667 144.103 19.6464 144.23 19.8738C144.355 20.1013 144.419 20.3651 144.419 20.663C144.419 20.9609 144.355 21.2248 144.23 21.4522Z" fill="#E4E4E7"/>
<path d="M146.852 18.5933L145.793 22.7189L146.493 22.7189L147.395 19.2528L148.001 19.2528L148.897 22.7189L149.603 22.7189L148.542 18.5933L146.852 18.5933Z" fill="#E4E4E7"/>
<path d="M151.25 18.5933L150.189 22.7189L150.889 22.7189L151.791 19.2528L152.398 19.2528L153.293 22.7189L154 22.7189L152.941 18.5933L151.25 18.5933Z" fill="#E4E4E7"/>
<path d="M131.89 20.4287L19.9199 20.4287L19.9199 21.2065L131.89 21.2065L131.89 20.4287Z" fill="#E4E4E7"/>
</svg>
